<?xml version="1.0" encoding="UTF-8" standalone="no"?>
<svg width="137px" height="137px" viewBox="0 0 137 137" version="1.1" xmlns="http://www.w3.org/2000/svg" xmlns:xlink="http://www.w3.org/1999/xlink" xmlns:sketch="http://www.bohemiancoding.com/sketch/ns">
    <!-- Generator: sketchtool 3.5.1 (25234) - http://www.bohemiancoding.com/sketch -->
    <title>icon_measure</title>
    <desc>Created with sketchtool.</desc>
    <defs></defs>
    <g id="Page-1" stroke="none" stroke-width="1" fill="none" fill-rule="evenodd" sketch:type="MSPage">
        <g id="Homepage-Desktop" sketch:type="MSArtboardGroup" transform="translate(-114.000000, -745.000000)" fill="#666666">
            <g id="how-it-works" sketch:type="MSLayerGroup" transform="translate(0.000000, 546.000000)">
                <g id="measure" transform="translate(17.000000, 160.000000)" sketch:type="MSShapeGroup">
                    <g id="step-measure" transform="translate(17.000000, 39.000000)">
                        <path d="M208.438747,113.275 L200.364373,121.155 L200.364373,16.3562533 L208.438747,24.2362533 C210.214373,26.0092533 212.975,26.0092533 214.74012,24.2362533 C216.515747,22.4606267 216.515747,19.7 214.74012,17.93488 L200.364373,3.94 L199.185,2.955 C197.409373,1.37374667 194.856253,1.17937333 193.080627,2.955 L191.499373,4.53625333 L176.918747,18.1292533 C175.145747,19.7105067 174.948747,22.6655067 176.724373,24.4306267 C177.515,25.4156267 178.694373,25.8043733 179.873747,25.8043733 C180.858747,25.8043733 182.040747,25.4156267 182.828747,24.625 L191.305,16.745 L191.305,16.745 L191.305,121.349373 L182.828747,113.469373 C182.040747,112.678747 180.858747,112.29 179.873747,112.29 C178.694373,112.29 177.515,112.678747 176.724373,113.663747 C175.145747,115.439373 175.145747,118.2 176.918747,119.96512 L191.499373,133.560747 L193.080627,135.139373 C194.856253,136.720627 197.409373,136.720627 199.185,135.139373 L200.364373,134.154373 L214.545747,120.17 C216.318747,118.394373 216.318747,115.633747 214.545747,113.871253 C212.975,111.693747 210.214373,111.499373 208.438747,113.275 L208.438747,113.275 Z M127.085627,0 L96.1487467,0 C87.2837467,0 80,7.28374667 80,16.1487467 L80,119.573747 C80,128.438747 87.2837467,135.72512 96.1487467,135.72512 L126.880747,135.72512 C135.745747,135.72512 143.029493,128.438747 143.029493,119.573747 L143.029493,16.1487467 C143.234373,7.28374667 135.950627,0 127.085627,0 L127.085627,0 Z M134.369373,24.0287467 L116.250627,24.0287467 C113.889253,24.0287467 111.919253,25.9987467 111.919253,28.36012 C111.919253,30.7188667 113.889253,32.6888667 116.250627,32.6888667 L134.369373,32.6888667 L134.369373,43.5238667 L116.250627,43.5238667 C113.889253,43.5238667 111.919253,45.4938667 111.919253,47.85524 C111.919253,50.2139867 113.889253,52.1839867 116.250627,52.1839867 L134.369373,52.1839867 L134.369373,63.61524 L116.250627,63.61524 C113.889253,63.61524 111.919253,65.58524 111.919253,67.9439867 C111.919253,70.30536 113.889253,72.27536 116.250627,72.27536 L134.369373,72.27536 L134.369373,83.11036 L116.250627,83.11036 C113.889253,83.11036 111.919253,85.08036 111.919253,87.4391067 C111.919253,89.80048 113.889253,91.77048 116.250627,91.77048 L134.369373,91.77048 L134.369373,102.602853 L116.250627,102.602853 C113.889253,102.602853 111.919253,104.572853 111.919253,106.934227 C111.919253,109.292973 113.889253,111.47048 116.250627,111.47048 L134.369373,111.47048 L134.369373,118.959107 C134.369373,123.09348 131.025627,126.242853 127.085627,126.242853 L96.1487467,126.242853 C92.0143733,126.242853 88.865,122.899107 88.865,118.959107 L88.865,16.1487467 C88.865,12.0143733 92.2087467,8.865 96.1487467,8.865 L126.880747,8.865 C131.01512,8.865 134.164493,12.2087467 134.164493,16.1487467 L134.164493,24.0287467 L134.369373,24.0287467 Z" id="icon_measure"></path>
                    </g>
                </g>
            </g>
        </g>
    </g>
</svg>