<?xml version="1.0" encoding="UTF-8" standalone="no"?>
<svg width="144px" height="151px" viewBox="0 0 144 151" version="1.1" xmlns="http://www.w3.org/2000/svg" xmlns:xlink="http://www.w3.org/1999/xlink" xmlns:sketch="http://www.bohemiancoding.com/sketch/ns">
    <!-- Generator: sketchtool 3.5.1 (25234) - http://www.bohemiancoding.com/sketch -->
    <title>icon_photos</title>
    <desc>Created with sketchtool.</desc>
    <defs></defs>
    <g id="Page-1" stroke="none" stroke-width="1" fill="none" fill-rule="evenodd" sketch:type="MSPage">
        <g id="Homepage-Desktop" sketch:type="MSArtboardGroup" transform="translate(-436.000000, -740.000000)" fill="#666666">
            <g id="how-it-works" sketch:type="MSLayerGroup" transform="translate(0.000000, 546.000000)">
                <g id="upload" transform="translate(346.000000, 160.000000)" sketch:type="MSShapeGroup">
                    <g id="step-photos" transform="translate(35.000000, 34.000000)">
                        <g id="icon_photos" transform="translate(55.000000, 0.000000)">
                            <path d="M79.3108041,49.9641401 C72.8383192,49.9641401 67.5521517,55.2484014 67.5521517,61.7185522 C67.5521517,68.1860909 72.8383192,73.4729642 79.3108041,73.4729642 C85.780676,73.4729642 91.0694566,68.1860909 91.0694566,61.7185522 C91.0694566,55.2484014 85.7702239,49.9641401 79.3108041,49.9641401 L79.3108041,49.9641401 Z M79.3108041,70.1347112 C74.6047301,70.1347112 70.8785438,66.4124807 70.8785438,61.7081038 C70.8785438,57.0037269 74.6047301,53.2788843 79.3108041,53.2788843 C84.0142651,53.2788843 87.7404514,57.0037269 87.7404514,61.7081038 C87.7299993,66.4229291 84.003813,70.1347112 79.3108041,70.1347112 L79.3108041,70.1347112 Z" id="Fill-124"></path>
                            <path d="M128.691918,95.0227196 L128.691918,34.8714751 C128.691918,28.6076795 123.405751,23.1170631 117.12663,23.1170631 L100.661904,23.1170631 L97.9182183,9.79278403 C96.7423531,3.72228324 90.6696624,-0.391760965 84.5865195,0.976975013 L9.32853093,16.2603227 C6.38886782,16.8532675 3.83854676,18.608593 2.082588,21.1579944 C0.316177099,23.7100079 -0.266529455,26.6486109 0.316177099,29.7805086 L17.7607912,115.592941 C18.9340434,120.877202 23.6401175,124.602044 28.926285,124.602044 L28.926285,124.602044 C29.9061727,129.693011 34.6122467,133.611148 40.2982084,133.611148 L87.1394536,133.611148 C91.8429146,143.795693 102.224498,150.856177 114.186967,150.856177 C130.651694,150.856177 143.97294,137.529286 143.97294,121.080945 C143.983392,109.909029 137.704272,100.113686 128.691918,95.0227196 L128.691918,95.0227196 Z M24.6304573,114.020461 L7.18584315,28.22109 C6.99247865,27.0456488 7.18584315,25.6690765 7.77900184,24.6895422 C8.3695475,23.7100079 9.54279971,22.9237683 10.7186649,22.7304735 L85.9740405,7.44451372 C88.5269746,6.85418102 90.873479,8.61995492 91.4666377,11.1693563 L93.8131421,23.1170631 L87.7404514,23.1170631 L86.9539282,19.3948326 C86.5671992,17.8223535 85.780676,16.4562296 84.4036071,15.4766953 C83.0343774,14.4971609 81.463944,14.3012541 79.8908976,14.4971609 L19.1378601,26.8419056 C15.811468,27.4348504 13.6478759,30.760043 14.4317861,33.8919408 L26.7835972,94.6230695 C26.9769617,95.9918055 27.9568494,97.3683778 28.9367371,98.1546173 L28.9367371,117.358714 C26.7835972,117.745304 25.0171863,116.172825 24.6304573,114.020461 L24.6304573,114.020461 Z M28.9367371,34.8714751 L28.9367371,88.9417704 L17.7712434,33.698646 C17.3819013,32.3325221 18.361789,30.760043 19.9243833,30.5667482 L31.2963067,28.22109 C29.7232603,29.9738034 28.9367371,32.3325221 28.9367371,34.8714751 L28.9367371,34.8714751 Z M84.4036071,23.1170631 L55.3937051,23.1170631 L80.6774208,18.0260966 C81.463944,17.8328019 82.0440376,18.0260966 82.6371962,18.4152983 C83.2303549,18.8018878 83.6170839,19.3948326 83.8104485,20.1784601 L84.4036071,23.1170631 Z M40.502025,126.754408 C37.7557264,126.754408 35.795951,124.795339 35.795951,122.245938 L35.795951,34.8714751 C35.795951,32.3220737 38.1450685,29.7805086 40.502025,29.7805086 L117.319995,29.7805086 C119.872929,29.7805086 122.026069,32.128779 122.026069,34.8714751 L122.026069,92.2774113 C120.066293,91.6844665 118.106518,91.4911718 115.953378,91.297877 L115.953378,42.1278655 C115.953378,38.5963177 113.20708,35.8614578 109.880687,35.8614578 L47.747968,35.8614578 C44.4215758,35.8614578 41.6752772,38.8000608 41.6752772,42.1278655 L41.6752772,104.225118 C41.6752772,107.552923 44.4215758,110.102324 47.747968,110.102324 L86.5567471,110.102324 C85.1901303,113.430129 84.4036071,117.152359 84.4036071,121.070497 C84.4036071,123.029565 84.5969716,124.988634 84.9941528,126.947703 L40.502025,126.947703 L40.502025,126.754408 Z M88.1297934,106.777132 L57.9466392,106.777132 C58.3333682,98.7475621 61.4768479,88.1659792 65.7857408,80.3297045 C66.3762865,79.3501702 67.1523575,78.7572254 67.9388807,78.3706359 C68.7254039,78.1773411 69.7052916,78.1773411 70.4918148,78.5639306 C73.0421359,79.9300545 75.7779823,80.7162941 78.5242809,80.7162941 C81.463944,80.7162941 84.0142651,79.9300545 86.5567471,78.5639306 C87.3432703,78.1773411 88.1297934,77.9709858 88.9032515,78.1773411 C89.8831392,78.3706359 90.6696624,79.1568754 91.2523689,80.1364098 C93.80269,84.6448798 95.9584429,90.3183427 97.5184242,96.0022539 C93.80269,98.9408569 90.4762979,102.459344 88.1297934,106.777132 L88.1297934,106.777132 Z M100.868334,94.4297748 C99.2952872,88.7458635 97.1421473,83.2683075 94.5996653,78.7572254 C93.6197776,76.9914515 92.0493443,75.8186224 90.0895689,75.2282897 C88.323158,74.8390881 86.5567471,75.0323828 85.1901303,75.8186224 C83.2303549,76.9914515 81.074602,77.5843963 78.7176454,77.5843963 C76.371141,77.5843963 74.2049359,76.9914515 72.2451605,75.8186224 C70.6747272,74.8390881 68.7149518,74.6457933 66.958993,75.2282897 C65.1925821,75.8186224 63.8259654,76.9914515 62.8460777,78.7572254 C58.1400037,86.9827017 54.8136116,98.3479121 54.4138174,106.777132 L47.5546035,106.777132 C45.9841701,106.777132 44.8083049,105.604302 44.8083049,104.225118 L44.8083049,42.1278655 C44.8083049,40.5553863 46.1775346,39.1892624 47.5546035,39.1892624 L109.676871,39.1892624 C111.043487,39.1892624 112.420556,40.5553863 112.420556,42.1278655 L112.420556,91.297877 C108.307641,91.4911718 104.38809,92.6640009 100.868334,94.4297748 L100.868334,94.4297748 Z M114.186967,144.192731 C101.448427,144.192731 91.0590044,133.804443 91.0590044,121.070497 C91.0590044,108.33655 101.448427,97.9508742 114.186967,97.9508742 C126.925507,97.9508742 137.317543,108.33655 137.317543,121.070497 C137.317543,133.804443 126.925507,144.192731 114.186967,144.192731 L114.186967,144.192731 Z" id="Fill-125"></path>
                            <path d="M126.138984,116.37918 L119.086406,116.37918 L119.086406,109.52244 C119.086406,108.542905 118.299883,107.756666 117.319995,107.756666 L111.05394,107.756666 C110.074052,107.756666 109.287529,108.542905 109.287529,109.52244 L109.287529,116.37918 L102.23495,116.37918 C101.255063,116.37918 100.468539,117.162808 100.468539,118.142342 L100.468539,124.40875 C100.468539,125.388284 101.255063,126.174524 102.23495,126.174524 L109.287529,126.174524 L109.287529,133.031264 C109.287529,134.010798 110.074052,134.794426 111.05394,134.794426 L117.319995,134.794426 C118.299883,134.794426 119.086406,134.010798 119.086406,133.031264 L119.086406,126.174524 L126.138984,126.174524 C127.118872,126.174524 127.905395,125.388284 127.905395,124.40875 L127.905395,118.142342 C127.712031,117.152359 127.118872,116.37918 126.138984,116.37918 L126.138984,116.37918 Z M124.385638,122.642976 L117.330447,122.642976 C116.350559,122.642976 115.566649,123.429215 115.566649,124.40875 L115.566649,131.26549 L112.626986,131.26549 L112.626986,124.40875 C112.626986,123.429215 111.840463,122.642976 110.860575,122.642976 L103.807997,122.642976 L103.807997,119.704373 L111.05394,119.704373 C112.033827,119.704373 112.820351,118.918133 112.820351,117.938599 L112.820351,111.081858 L115.760014,111.081858 L115.760014,117.938599 C115.760014,118.918133 116.546537,119.704373 117.526425,119.704373 L124.579003,119.704373 L124.579003,122.642976 L124.385638,122.642976 Z" id="Fill-126"></path>
                        </g>
                    </g>
                </g>
            </g>
        </g>
    </g>
</svg>