<?xml version="1.0" encoding="UTF-8" standalone="no"?>
<svg width="131px" height="131px" viewBox="0 0 131 131" version="1.1" xmlns="http://www.w3.org/2000/svg" xmlns:xlink="http://www.w3.org/1999/xlink" xmlns:sketch="http://www.bohemiancoding.com/sketch/ns">
    <!-- Generator: sketchtool 3.5.1 (25234) - http://www.bohemiancoding.com/sketch -->
    <title>icon_fabric</title>
    <desc>Created with sketchtool.</desc>
    <defs></defs>
    <g id="Page-1" stroke="none" stroke-width="1" fill="none" fill-rule="evenodd" sketch:type="MSPage">
        <g id="Homepage-Desktop" sketch:type="MSArtboardGroup" transform="translate(-775.000000, -748.000000)" fill="#666666">
            <g id="how-it-works" sketch:type="MSLayerGroup" transform="translate(0.000000, 546.000000)">
                <g id="fabric" transform="translate(675.000000, 160.000000)" sketch:type="MSShapeGroup">
                    <g id="step-fabric" transform="translate(48.000000, 42.000000)">
                        <path d="M129.355986,6.78482854 L129.303585,6.73242963 L129.355986,6.78482854 L122.654607,13.4862074 L129.522889,20.3544889 L122.639081,27.2382963 L129.227896,33.8271111 L122.852563,40.2024444 L129.546178,46.8960593 L122.837037,53.597437 L123.003941,53.4538222 L129.660681,60.110563 L136.247556,53.5217481 L142.820844,60.095037 L149.483407,53.4382963 L156.291526,60.2541778 L163.023956,53.5217481 L169.680696,60.1784889 L176.335496,53.5217481 L129.371511,6.7693037 L129.355986,6.78482854 Z M176.26757,93.5728148 L182.848622,86.9995259 L176.191881,80.3427852 L183,73.5288444 L176.26757,66.8041778 L182.932074,60.1396741 L178.943852,56.1533926 L169.680696,65.4087852 L163.023956,58.7520444 L156.291526,65.4844741 L149.483407,58.6763556 L142.820844,65.3330963 L136.247556,58.7520444 L129.660681,65.3408593 L117.659141,53.3393185 L120.220919,50.9832593 L124.315881,46.8960593 L117.620326,40.2024444 L123.9976,33.8271111 L117.408785,27.2382963 L124.292593,20.3544889 L117.416548,13.4862074 L126.741807,4.16871111 L122.586681,0.0155259259 L115.710637,6.88380741 L108.834593,0 L102.247719,6.58881481 L95.8704444,0.211540741 L89.1768296,6.9070963 L82.4676889,0.197955556 L82.6190667,0.357096296 L75.9642667,7.01965926 L82.5511407,13.6084741 L75.9720296,20.1798222 L82.6268296,26.836563 L75.8187111,33.6524444 L82.5511407,40.3848741 L75.8885778,47.0396741 L82.5511407,53.6964148 L75.8264741,60.4133185 L82.7025185,67.289363 L75.8187111,74.1654074 L82.4075259,80.7522815 L76.0321926,87.1295556 L82.7258074,93.8231704 L76.0166667,100.532311 L76.1758074,100.380933 L82.8403111,107.035733 L89.4271852,100.448859 L96.0004741,107.02797 L102.657215,100.37317 L109.471156,107.181289 L116.195822,100.448859 L122.860326,107.111422 L129.515126,100.448859 L136.23203,107.173526 L143.100311,100.297481 L149.984119,107.181289 L156.572933,100.592474 L162.948267,106.967807 L169.641881,100.274193 L176.351022,106.983333 L176.199644,106.824193 L182.856385,100.159689 L176.26757,93.5728148 Z M152.448859,117.391526 L158.701926,111.146222 L156.572933,109.015289 L149.984119,115.602163 L143.100311,108.720296 L136.23203,115.5944 L129.515126,108.871674 L122.860326,115.534237 L116.195822,108.871674 L109.471156,115.602163 L102.657215,108.795985 L96.0004741,115.450785 L89.4271852,108.871674 L82.8403111,115.458548 L67.6773037,100.297481 L74.3029926,93.8231704 L67.6093778,87.1295556 L73.9847111,80.7522815 L67.397837,74.1654074 L74.2797037,67.289363 L67.4114222,60.4133185 L74.1283259,53.6964148 L67.465763,47.0396741 L74.1283259,40.3848741 L67.397837,33.6524444 L74.2040148,26.836563 L71.7256889,24.358237 L65.3581185,30.7258074 L58.6489778,24.0166667 L58.8003556,24.1758074 L52.1436148,30.8403111 L58.7324296,37.4271852 L52.1513778,44.0004741 L58.8081185,50.6572148 L52,57.4711556 L58.7324296,64.1958222 L52.0679259,70.8603259 L58.7324296,77.5151259 L52.0155259,84.2320296 L58.8838074,91.1003111 L52,97.9841185 L58.5888148,104.572933 L52.2115407,110.948267 L58.9070963,117.641881 L52.1979556,124.351022 L52.3570963,124.199644 L59.0196593,130.856385 L65.6084741,124.26757 L72.1798222,130.848622 L78.836563,124.191881 L85.6524444,131 L92.3848741,124.26757 L99.0396741,130.932074 L105.696415,124.26757 L112.413319,130.992237 L119.289363,124.116193 L126.165407,131 L132.752281,124.411185 L139.129556,130.788459 L145.82317,124.092904 L152.532311,130.802044 L152.380933,130.642904 L159.035733,123.980341 L152.448859,117.391526 Z" id="icon_fabric"></path>
                    </g>
                </g>
            </g>
        </g>
    </g>
</svg>